<?xml version="1.0" encoding="UTF-8" standalone="no"?>
<!DOCTYPE svg PUBLIC "-//W3C//DTD SVG 1.1//EN"
 "http://www.w3.org/Graphics/SVG/1.1/DTD/svg11.dtd">
<!-- Generated by graphviz version 2.38.0 (20140413.2041)
 -->
<!-- Title: G Pages: 1 -->
<svg width="165pt" height="746pt"
 viewBox="0.00 0.00 165.00 746.00" xmlns="http://www.w3.org/2000/svg" xmlns:xlink="http://www.w3.org/1999/xlink">
<g id="graph0" class="graph" transform="scale(1 1) rotate(0) translate(4 742)">
<title>G</title>
<polygon fill="white" stroke="none" points="-4,4 -4,-742 161,-742 161,4 -4,4"/>
<!-- node0xc000046050 -->
<g id="node1" class="node"><title>node0xc000046050</title>
<defs>
<radialGradient id="r_0" cx="50%" cy="50%" r="75%" fx="50%" fy="50%">
<stop offset="0" style="stop-color:yellow;stop-opacity:1.;"/>
<stop offset="1" style="stop-color:red;stop-opacity:1.;"/>
</radialGradient>
</defs>
<polygon fill="url(#r_0)" stroke="black" points="7,-645.5 7,-737.5 150,-737.5 150,-645.5 7,-645.5"/>
<text text-anchor="middle" x="78.5" y="-722.3" font-family="Times New Roman,serif" font-size="14.00">Nombre: Marvin</text>
<polyline fill="none" stroke="black" points="7,-714.5 150,-714.5 "/>
<text text-anchor="middle" x="78.5" y="-699.3" font-family="Times New Roman,serif" font-size="14.00">Apellido: Martinez</text>
<polyline fill="none" stroke="black" points="7,-691.5 150,-691.5 "/>
<text text-anchor="middle" x="78.5" y="-676.3" font-family="Times New Roman,serif" font-size="14.00">Apodo: Marvin25ronal</text>
<polyline fill="none" stroke="black" points="7,-668.5 150,-668.5 "/>
<text text-anchor="middle" x="78.5" y="-653.3" font-family="Times New Roman,serif" font-size="14.00">Favorito: Jugar apex</text>
</g>
<!-- node0xc0000460a0 -->
<g id="node2" class="node"><title>node0xc0000460a0</title>
<defs>
<radialGradient id="r_1" cx="50%" cy="50%" r="75%" fx="50%" fy="50%">
<stop offset="0" style="stop-color:yellow;stop-opacity:1.;"/>
<stop offset="1" style="stop-color:red;stop-opacity:1.;"/>
</radialGradient>
</defs>
<polygon fill="url(#r_1)" stroke="black" points="24,-516.5 24,-608.5 133,-608.5 133,-516.5 24,-516.5"/>
<text text-anchor="middle" x="78.5" y="-593.3" font-family="Times New Roman,serif" font-size="14.00">Nombre: Yaiza</text>
<polyline fill="none" stroke="black" points="24,-585.5 133,-585.5 "/>
<text text-anchor="middle" x="78.5" y="-570.3" font-family="Times New Roman,serif" font-size="14.00">Apellido: Pineda</text>
<polyline fill="none" stroke="black" points="24,-562.5 133,-562.5 "/>
<text text-anchor="middle" x="78.5" y="-547.3" font-family="Times New Roman,serif" font-size="14.00">Apodo: Bambi</text>
<polyline fill="none" stroke="black" points="24,-539.5 133,-539.5 "/>
<text text-anchor="middle" x="78.5" y="-524.3" font-family="Times New Roman,serif" font-size="14.00">Favorito: Patinar</text>
</g>
<!-- node0xc000046050&#45;&gt;node0xc0000460a0 -->
<g id="edge1" class="edge"><title>node0xc000046050&#45;&gt;node0xc0000460a0</title>
<path fill="none" stroke="black" d="M72.0075,-645.367C71.7627,-636.86 71.6924,-627.873 71.7968,-619.09"/>
<polygon fill="black" stroke="black" points="75.2995,-618.983 71.9994,-608.916 68.3009,-618.844 75.2995,-618.983"/>
</g>
<!-- node0xc0000460a0&#45;&gt;node0xc000046050 -->
<g id="edge2" class="edge"><title>node0xc0000460a0&#45;&gt;node0xc000046050</title>
<path fill="none" stroke="black" d="M85.0006,-608.916C85.2415,-617.433 85.3079,-626.423 85.1997,-635.201"/>
<polygon fill="black" stroke="black" points="81.6971,-635.298 84.9925,-645.367 88.6957,-635.44 81.6971,-635.298"/>
</g>
<!-- node0xc0000460f0 -->
<g id="node3" class="node"><title>node0xc0000460f0</title>
<defs>
<radialGradient id="r_2" cx="50%" cy="50%" r="75%" fx="50%" fy="50%">
<stop offset="0" style="stop-color:yellow;stop-opacity:1.;"/>
<stop offset="1" style="stop-color:red;stop-opacity:1.;"/>
</radialGradient>
</defs>
<polygon fill="url(#r_2)" stroke="black" points="19.5,-387.5 19.5,-479.5 137.5,-479.5 137.5,-387.5 19.5,-387.5"/>
<text text-anchor="middle" x="78.5" y="-464.3" font-family="Times New Roman,serif" font-size="14.00">Nombre: Jonathan</text>
<polyline fill="none" stroke="black" points="19.5,-456.5 137.5,-456.5 "/>
<text text-anchor="middle" x="78.5" y="-441.3" font-family="Times New Roman,serif" font-size="14.00">Apellido: Lopez</text>
<polyline fill="none" stroke="black" points="19.5,-433.5 137.5,-433.5 "/>
<text text-anchor="middle" x="78.5" y="-418.3" font-family="Times New Roman,serif" font-size="14.00">Apodo: Pancho</text>
<polyline fill="none" stroke="black" points="19.5,-410.5 137.5,-410.5 "/>
<text text-anchor="middle" x="78.5" y="-395.3" font-family="Times New Roman,serif" font-size="14.00">Favorito: Comer</text>
</g>
<!-- node0xc0000460a0&#45;&gt;node0xc0000460f0 -->
<g id="edge3" class="edge"><title>node0xc0000460a0&#45;&gt;node0xc0000460f0</title>
<path fill="none" stroke="black" d="M72.0075,-516.367C71.7627,-507.86 71.6924,-498.873 71.7968,-490.09"/>
<polygon fill="black" stroke="black" points="75.2995,-489.983 71.9994,-479.916 68.3009,-489.844 75.2995,-489.983"/>
</g>
<!-- node0xc0000460f0&#45;&gt;node0xc0000460a0 -->
<g id="edge4" class="edge"><title>node0xc0000460f0&#45;&gt;node0xc0000460a0</title>
<path fill="none" stroke="black" d="M85.0006,-479.916C85.2415,-488.433 85.3079,-497.423 85.1997,-506.201"/>
<polygon fill="black" stroke="black" points="81.6971,-506.298 84.9925,-516.367 88.6957,-506.44 81.6971,-506.298"/>
</g>
<!-- node0xc000046140 -->
<g id="node4" class="node"><title>node0xc000046140</title>
<defs>
<radialGradient id="r_3" cx="50%" cy="50%" r="75%" fx="50%" fy="50%">
<stop offset="0" style="stop-color:yellow;stop-opacity:1.;"/>
<stop offset="1" style="stop-color:red;stop-opacity:1.;"/>
</radialGradient>
</defs>
<polygon fill="url(#r_3)" stroke="black" points="13.5,-258.5 13.5,-350.5 143.5,-350.5 143.5,-258.5 13.5,-258.5"/>
<text text-anchor="middle" x="78.5" y="-335.3" font-family="Times New Roman,serif" font-size="14.00">Nombre: usuario1</text>
<polyline fill="none" stroke="black" points="13.5,-327.5 143.5,-327.5 "/>
<text text-anchor="middle" x="78.5" y="-312.3" font-family="Times New Roman,serif" font-size="14.00">Apellido: bla</text>
<polyline fill="none" stroke="black" points="13.5,-304.5 143.5,-304.5 "/>
<text text-anchor="middle" x="78.5" y="-289.3" font-family="Times New Roman,serif" font-size="14.00">Apodo: bla</text>
<polyline fill="none" stroke="black" points="13.5,-281.5 143.5,-281.5 "/>
<text text-anchor="middle" x="78.5" y="-266.3" font-family="Times New Roman,serif" font-size="14.00">Favorito: Jugar apex</text>
</g>
<!-- node0xc0000460f0&#45;&gt;node0xc000046140 -->
<g id="edge5" class="edge"><title>node0xc0000460f0&#45;&gt;node0xc000046140</title>
<path fill="none" stroke="black" d="M72.0075,-387.367C71.7627,-378.86 71.6924,-369.873 71.7968,-361.09"/>
<polygon fill="black" stroke="black" points="75.2995,-360.983 71.9994,-350.916 68.3009,-360.844 75.2995,-360.983"/>
</g>
<!-- node0xc000046140&#45;&gt;node0xc0000460f0 -->
<g id="edge6" class="edge"><title>node0xc000046140&#45;&gt;node0xc0000460f0</title>
<path fill="none" stroke="black" d="M85.0006,-350.916C85.2415,-359.433 85.3079,-368.423 85.1997,-377.201"/>
<polygon fill="black" stroke="black" points="81.6971,-377.298 84.9925,-387.367 88.6957,-377.44 81.6971,-377.298"/>
</g>
<!-- node0xc000046190 -->
<g id="node5" class="node"><title>node0xc000046190</title>
<defs>
<radialGradient id="r_4" cx="50%" cy="50%" r="75%" fx="50%" fy="50%">
<stop offset="0" style="stop-color:yellow;stop-opacity:1.;"/>
<stop offset="1" style="stop-color:red;stop-opacity:1.;"/>
</radialGradient>
</defs>
<polygon fill="url(#r_4)" stroke="black" points="13.5,-129.5 13.5,-221.5 143.5,-221.5 143.5,-129.5 13.5,-129.5"/>
<text text-anchor="middle" x="78.5" y="-206.3" font-family="Times New Roman,serif" font-size="14.00">Nombre: usuario2</text>
<polyline fill="none" stroke="black" points="13.5,-198.5 143.5,-198.5 "/>
<text text-anchor="middle" x="78.5" y="-183.3" font-family="Times New Roman,serif" font-size="14.00">Apellido: bla</text>
<polyline fill="none" stroke="black" points="13.5,-175.5 143.5,-175.5 "/>
<text text-anchor="middle" x="78.5" y="-160.3" font-family="Times New Roman,serif" font-size="14.00">Apodo: bla</text>
<polyline fill="none" stroke="black" points="13.5,-152.5 143.5,-152.5 "/>
<text text-anchor="middle" x="78.5" y="-137.3" font-family="Times New Roman,serif" font-size="14.00">Favorito: Jugar apex</text>
</g>
<!-- node0xc000046140&#45;&gt;node0xc000046190 -->
<g id="edge7" class="edge"><title>node0xc000046140&#45;&gt;node0xc000046190</title>
<path fill="none" stroke="black" d="M72.0075,-258.367C71.7627,-249.86 71.6924,-240.873 71.7968,-232.09"/>
<polygon fill="black" stroke="black" points="75.2995,-231.983 71.9994,-221.916 68.3009,-231.844 75.2995,-231.983"/>
</g>
<!-- node0xc000046190&#45;&gt;node0xc000046140 -->
<g id="edge8" class="edge"><title>node0xc000046190&#45;&gt;node0xc000046140</title>
<path fill="none" stroke="black" d="M85.0006,-221.916C85.2415,-230.433 85.3079,-239.423 85.1997,-248.201"/>
<polygon fill="black" stroke="black" points="81.6971,-248.298 84.9925,-258.367 88.6957,-248.44 81.6971,-248.298"/>
</g>
<!-- node0xc0000461e0 -->
<g id="node6" class="node"><title>node0xc0000461e0</title>
<defs>
<radialGradient id="r_5" cx="50%" cy="50%" r="75%" fx="50%" fy="50%">
<stop offset="0" style="stop-color:yellow;stop-opacity:1.;"/>
<stop offset="1" style="stop-color:red;stop-opacity:1.;"/>
</radialGradient>
</defs>
<polygon fill="url(#r_5)" stroke="black" points="0,-0.5 0,-92.5 157,-92.5 157,-0.5 0,-0.5"/>
<text text-anchor="middle" x="78.5" y="-77.3" font-family="Times New Roman,serif" font-size="14.00">Nombre: usuario3</text>
<polyline fill="none" stroke="black" points="0,-69.5 157,-69.5 "/>
<text text-anchor="middle" x="78.5" y="-54.3" font-family="Times New Roman,serif" font-size="14.00">Apellido: sale edd</text>
<polyline fill="none" stroke="black" points="0,-46.5 157,-46.5 "/>
<text text-anchor="middle" x="78.5" y="-31.3" font-family="Times New Roman,serif" font-size="14.00">Apodo: vamos con todo</text>
<polyline fill="none" stroke="black" points="0,-23.5 157,-23.5 "/>
<text text-anchor="middle" x="78.5" y="-8.3" font-family="Times New Roman,serif" font-size="14.00">Favorito: 100 en la fase 1</text>
</g>
<!-- node0xc000046190&#45;&gt;node0xc0000461e0 -->
<g id="edge9" class="edge"><title>node0xc000046190&#45;&gt;node0xc0000461e0</title>
<path fill="none" stroke="black" d="M72.0075,-129.367C71.7627,-120.86 71.6924,-111.873 71.7968,-103.09"/>
<polygon fill="black" stroke="black" points="75.2995,-102.983 71.9994,-92.9156 68.3009,-102.844 75.2995,-102.983"/>
</g>
<!-- node0xc0000461e0&#45;&gt;node0xc000046190 -->
<g id="edge10" class="edge"><title>node0xc0000461e0&#45;&gt;node0xc000046190</title>
<path fill="none" stroke="black" d="M85.0006,-92.9156C85.2415,-101.433 85.3079,-110.423 85.1997,-119.201"/>
<polygon fill="black" stroke="black" points="81.6971,-119.298 84.9925,-129.367 88.6957,-119.44 81.6971,-119.298"/>
</g>
</g>
</svg>
